# xmcd CD database file
#
# Track frame offsets:
#	150
#	17173
#	33220
#	50543
#	65711
#	78960
#	95829
#	113500
#	132871
#	149809
#	167203
#	182422
#	195419
#	213741
#
# Disc length: 3031 seconds
#
# Revision: 0
# Processed by: cddbd v1.5.2PL0 Copyright (c) Steve Scherf et al.
# Submitted via: CDex 1.79
#
DISCID=c80bd50e
DTITLE=Michael Woody - Listen To Me
DYEAR=1900
DGENRE=Country
TTITLE0=When Love Comes To Town
TTITLE1=Clear As A Bell
TTITLE2=Fork In The Road
TTITLE3=Only A Fool Could Tell
TTITLE4=Greener Pastures
TTITLE5=Listen To The Rain
TTITLE6=Lovin` Dangerously
TTITLE7=Party Crowd
TTITLE8=As Good As Goodbye Gets
TTITLE9=Prayin` For Rain
TTITLE10=Listen To Me
TTITLE11=I Know A Goodbye
TTITLE12=Drinkin` Stories
TTITLE13=Beginning To Believe
EXTD=
EXTT0=
EXTT1=
EXTT2=
EXTT3=
EXTT4=
EXTT5=
EXTT6=
EXTT7=
EXTT8=
EXTT9=
EXTT10=
EXTT11=
EXTT12=
EXTT13=
PLAYORDER=
